<?xml version="1.0" encoding="UTF-8" standalone="no"?>
<svg
   xmlns:dc="http://purl.org/dc/elements/1.1/"
   xmlns:cc="http://creativecommons.org/ns#"
   xmlns:rdf="http://www.w3.org/1999/02/22-rdf-syntax-ns#"
   xmlns:svg="http://www.w3.org/2000/svg"
   xmlns="http://www.w3.org/2000/svg"
   xmlns:sodipodi="http://sodipodi.sourceforge.net/DTD/sodipodi-0.dtd"
   xmlns:inkscape="http://www.inkscape.org/namespaces/inkscape"
   id="svg2"
   viewBox="0 0 624.81359 558.64404"
   version="1.1"
   inkscape:version="0.91 r13725"
   sodipodi:docname="happycat-end.svg"
   width="624.8136"
   height="558.64404">
  <defs
     id="defs3570" />
  <sodipodi:namedview
     pagecolor="#ffffff"
     bordercolor="#666666"
     borderopacity="1"
     objecttolerance="10"
     gridtolerance="10"
     guidetolerance="10"
     inkscape:pageopacity="0"
     inkscape:pageshadow="2"
     inkscape:window-width="1920"
     inkscape:window-height="1043"
     id="namedview3568"
     showgrid="false"
     fit-margin-top="0"
     fit-margin-left="0"
     fit-margin-right="0"
     fit-margin-bottom="0"
     inkscape:zoom="0.921875"
     inkscape:cx="191.05072"
     inkscape:cy="298.40708"
     inkscape:window-x="1366"
     inkscape:window-y="37"
     inkscape:window-maximized="0"
     inkscape:current-layer="svg2" />
  <g
     id="layer1"
     transform="matrix(1.1843221,0,0,0.97881356,8.6779659,-528.91168)">
    <rect
       id="rect3975"
       height="570.7359"
       width="527.57068"
       y="540.35999"
       x="-7.3273697"
       style="fill:#d5e3ac" />
    <rect
       id="rect2985"
       rx="16"
       ry="16"
       height="240"
       width="440"
       y="772.35999"
       x="40"
       style="fill:#ac533a" />
    <rect
       id="rect3785"
       rx="16"
       ry="16"
       height="240"
       width="440"
       y="772.35999"
       x="40"
       style="fill:none;stroke:#414141;stroke-width:8" />
    <path
       id="path3791"
       d="m 40,272 440,0"
       transform="translate(0,540.36)"
       inkscape:connector-curvature="0"
       style="fill:none;stroke:#414141;stroke-width:8;stroke-linecap:round;stroke-linejoin:round" />
    <path
       id="path3793"
       d="m 40,852.36 440,0"
       inkscape:connector-curvature="0"
       style="fill:none;stroke:#414141;stroke-width:8;stroke-linecap:round;stroke-linejoin:round" />
    <path
       id="path3795"
       d="m 40,892.36 440,0"
       inkscape:connector-curvature="0"
       style="fill:none;stroke:#414141;stroke-width:8;stroke-linecap:round;stroke-linejoin:round" />
    <path
       id="path3797"
       d="m 40,932.36 440,0"
       inkscape:connector-curvature="0"
       style="fill:none;stroke:#414141;stroke-width:8;stroke-linecap:round;stroke-linejoin:round" />
    <path
       id="path3799"
       d="m 40,972.36 440,0"
       inkscape:connector-curvature="0"
       style="fill:none;stroke:#414141;stroke-width:8;stroke-linecap:round;stroke-linejoin:round" />
    <g
       id="g3801">
      <rect
         id="rect3757"
         transform="translate(0,540.36)"
         rx="16"
         ry="16"
         height="80"
         width="120"
         y="352"
         x="200"
         style="fill:#e91905" />
      <path
         id="path3763"
         transform="translate(0,540.36)"
         d="M 212.16,370.56 200,393.22 200,416 c 0,8.86 7.14,16 16,16 l 88,0 c 8.86,0 16,-7.14 16,-16 l 0,-26 -16.44,-6.56 -21.4,16.4 -1.44,-18.56 -27.16,15.72 -4.28,-17.84 -23.56,19.28 -13.56,-27.88 z"
         inkscape:connector-curvature="0"
         style="fill:#ff7800" />
      <path
         id="path3761"
         transform="translate(0,540.36)"
         d="M 215.72,384.84 200,407.19 200,416 c 0,8.86 7.14,16 16,16 l 88,0 c 8.86,0 16,-7.14 16,-16 l 0,-18.97 -1.44,-2.19 -15.72,30 -15.68,-28.56 -17.16,21.44 -8.56,-21.44 -20,30 L 230,402 l -8.56,17.16 -5.72,-34.32 z"
         inkscape:connector-curvature="0"
         style="fill:#ffbd00" />
      <rect
         id="rect3771"
         transform="translate(0,540.36)"
         height="80"
         width="8"
         y="352"
         x="216"
         style="fill:#414141" />
      <rect
         id="rect3773"
         height="80"
         width="8"
         y="892.35999"
         x="232"
         style="fill:#414141" />
      <rect
         id="rect3775"
         height="80"
         width="8"
         y="892.35999"
         x="248"
         style="fill:#414141" />
      <rect
         id="rect3777"
         height="80"
         width="8"
         y="892.35999"
         x="264"
         style="fill:#414141" />
      <rect
         id="rect3779"
         height="80"
         width="8"
         y="892.35999"
         x="280"
         style="fill:#414141" />
      <rect
         id="rect3781"
         height="80"
         width="8"
         y="892.35999"
         x="296"
         style="fill:#414141" />
      <rect
         id="rect3783"
         transform="translate(0,540.36)"
         rx="16"
         ry="16"
         height="80"
         width="120"
         y="352"
         x="200"
         style="fill:none;stroke:#414141;stroke-width:8" />
    </g>
    <path
       id="path3813"
       d="m 120,232 0,40"
       transform="translate(0,540.36)"
       inkscape:connector-curvature="0"
       style="fill:none;stroke:#414141;stroke-width:8;stroke-linecap:round;stroke-linejoin:round" />
    <path
       id="path3815"
       d="m 120,312 0,40"
       transform="translate(0,540.36)"
       inkscape:connector-curvature="0"
       style="fill:none;stroke:#414141;stroke-width:8;stroke-linecap:round;stroke-linejoin:round" />
    <path
       id="path3817"
       d="m 120,392 0,40"
       transform="translate(0,540.36)"
       inkscape:connector-curvature="0"
       style="fill:none;stroke:#414141;stroke-width:8;stroke-linecap:round;stroke-linejoin:round" />
    <path
       id="path3819"
       d="m 80,432 0,40"
       transform="translate(0,540.36)"
       inkscape:connector-curvature="0"
       style="fill:none;stroke:#414141;stroke-width:8;stroke-linecap:round;stroke-linejoin:round" />
    <path
       id="path3821"
       d="m 80,352 0,40"
       transform="translate(0,540.36)"
       inkscape:connector-curvature="0"
       style="fill:none;stroke:#414141;stroke-width:8;stroke-linecap:round;stroke-linejoin:round" />
    <path
       id="path3823"
       d="m 80,312 0,-40"
       transform="translate(0,540.36)"
       inkscape:connector-curvature="0"
       style="fill:none;stroke:#414141;stroke-width:8;stroke-linecap:round;stroke-linejoin:round" />
    <path
       id="path3825"
       d="m 200,772.36 0,40"
       inkscape:connector-curvature="0"
       style="fill:none;stroke:#414141;stroke-width:8;stroke-linecap:round;stroke-linejoin:round" />
    <path
       id="path3827"
       d="m 200,852.36 0,40"
       inkscape:connector-curvature="0"
       style="fill:none;stroke:#414141;stroke-width:8;stroke-linecap:round;stroke-linejoin:round" />
    <path
       id="path3829"
       d="m 200,932.36 0,40"
       inkscape:connector-curvature="0"
       style="fill:none;stroke:#414141;stroke-width:8;stroke-linecap:round;stroke-linejoin:round" />
    <path
       id="path3831"
       d="m 160,972.36 0,40"
       inkscape:connector-curvature="0"
       style="fill:none;stroke:#414141;stroke-width:8;stroke-linecap:round;stroke-linejoin:round" />
    <path
       id="path3833"
       d="m 160,892.36 0,40"
       inkscape:connector-curvature="0"
       style="fill:none;stroke:#414141;stroke-width:8;stroke-linecap:round;stroke-linejoin:round" />
    <path
       id="path3835"
       d="m 160,852.36 0,-40"
       inkscape:connector-curvature="0"
       style="fill:none;stroke:#414141;stroke-width:8;stroke-linecap:round;stroke-linejoin:round" />
    <path
       id="path3837"
       d="m 280,772.36 0,40"
       inkscape:connector-curvature="0"
       style="fill:none;stroke:#414141;stroke-width:8;stroke-linecap:round;stroke-linejoin:round" />
    <path
       id="path3839"
       d="m 280,852.36 0,40"
       inkscape:connector-curvature="0"
       style="fill:none;stroke:#414141;stroke-width:8;stroke-linecap:round;stroke-linejoin:round" />
    <path
       id="path3843"
       d="m 240,972.36 0,40"
       inkscape:connector-curvature="0"
       style="fill:none;stroke:#414141;stroke-width:8;stroke-linecap:round;stroke-linejoin:round" />
    <path
       id="path3847"
       d="m 240,852.36 0,-40"
       inkscape:connector-curvature="0"
       style="fill:none;stroke:#414141;stroke-width:8;stroke-linecap:round;stroke-linejoin:round" />
    <path
       id="path3849"
       d="m 360,772.36 0,40"
       inkscape:connector-curvature="0"
       style="fill:none;stroke:#414141;stroke-width:8;stroke-linecap:round;stroke-linejoin:round" />
    <path
       id="path3851"
       d="m 360,852.36 0,40"
       inkscape:connector-curvature="0"
       style="fill:none;stroke:#414141;stroke-width:8;stroke-linecap:round;stroke-linejoin:round" />
    <path
       id="path3853"
       d="m 360,932.36 0,40"
       inkscape:connector-curvature="0"
       style="fill:none;stroke:#414141;stroke-width:8;stroke-linecap:round;stroke-linejoin:round" />
    <path
       id="path3855"
       d="m 320,972.36 0,40"
       inkscape:connector-curvature="0"
       style="fill:none;stroke:#414141;stroke-width:8;stroke-linecap:round;stroke-linejoin:round" />
    <path
       id="path3857"
       d="m 320,892.36 0,40"
       inkscape:connector-curvature="0"
       style="fill:none;stroke:#414141;stroke-width:8;stroke-linecap:round;stroke-linejoin:round" />
    <path
       id="path3859"
       d="m 320,852.36 0,-40"
       inkscape:connector-curvature="0"
       style="fill:none;stroke:#414141;stroke-width:8;stroke-linecap:round;stroke-linejoin:round" />
    <path
       id="path3861"
       d="m 440,772.36 0,40"
       inkscape:connector-curvature="0"
       style="fill:none;stroke:#414141;stroke-width:8;stroke-linecap:round;stroke-linejoin:round" />
    <path
       id="path3863"
       d="m 440,852.36 0,40"
       inkscape:connector-curvature="0"
       style="fill:none;stroke:#414141;stroke-width:8;stroke-linecap:round;stroke-linejoin:round" />
    <path
       id="path3865"
       d="m 440,932.36 0,40"
       inkscape:connector-curvature="0"
       style="fill:none;stroke:#414141;stroke-width:8;stroke-linecap:round;stroke-linejoin:round" />
    <path
       id="path3867"
       d="m 400,972.36 0,40"
       inkscape:connector-curvature="0"
       style="fill:none;stroke:#414141;stroke-width:8;stroke-linecap:round;stroke-linejoin:round" />
    <path
       id="path3869"
       d="m 400,892.36 0,40"
       inkscape:connector-curvature="0"
       style="fill:none;stroke:#414141;stroke-width:8;stroke-linecap:round;stroke-linejoin:round" />
    <path
       id="path3871"
       d="m 400,852.36 0,-40"
       inkscape:connector-curvature="0"
       style="fill:none;stroke:#414141;stroke-width:8;stroke-linecap:round;stroke-linejoin:round" />
    <path
       id="path3873"
       d="m 320,932.36 0,40"
       inkscape:connector-curvature="0"
       style="fill:none;stroke:#414141;stroke-width:8;stroke-linecap:round;stroke-linejoin:round" />
    <path
       id="path3875"
       d="m 200,892.36 0,40"
       inkscape:connector-curvature="0"
       style="fill:none;stroke:#414141;stroke-width:8;stroke-linecap:round;stroke-linejoin:round" />
    <g
       id="g3941"
       transform="matrix(0.99604,0.088936,-0.088936,0.99604,56.54,11.58)">
      <g
         id="g3903"
         transform="matrix(-0.94391,0.33021,0.33021,0.94391,278.22,-55.894)"
         style="fill:none;stroke:#670000;stroke-width:8;stroke-linecap:round">
        <path
           id="path3899"
           transform="translate(0,540.36)"
           d="M 315,86 C 330.19,70.456 347.25,57.704 373,58"
           inkscape:connector-curvature="0" />
        <path
           id="path3901"
           d="m 322.41,641.61 c 18.615,-11.221 38.33,-19.271 63.179,-12.504"
           inkscape:connector-curvature="0" />
      </g>
      <path
         id="path3877"
         d="m 279,16.719 c -24.78,0.854 -27.28,35.656 -27.28,35.656 0,0 -67.859,-36.768 -70.688,-11.312 -2.8284,25.456 -53.289,106.66 -8.5,151.31 43.559,43.423 156.55,4.6441 181.66,-2.25 25.102,-6.8941 80.24,34.347 84.812,9.875 4.3813,-27.164 -53.652,-38.229 -59.812,-45.5 -6.1601,-7.2708 -7.3834,-47.892 -31.518,-85.287 -15.28,-23.673 -54.13,-50.849 -63.42,-52.177 -1.86,-0.265 -3.6,-0.369 -5.25,-0.312 z"
         transform="translate(0,540.36)"
         inkscape:connector-curvature="0"
         style="fill:#ff3038;stroke:#670000;stroke-width:8;stroke-linecap:round;stroke-linejoin:round" />
      <path
         id="path3881"
         d="m 202.23,96.221 c 8.3098,-33.866 20.568,-16.406 32.527,-2.8284"
         transform="translate(0,540.36)"
         inkscape:connector-curvature="0"
         style="fill:#ff3038;stroke:#670000;stroke-width:8;stroke-linecap:round;stroke-linejoin:round" />
      <path
         id="path3883"
         d="m 288.8,627.52 c -17.252,-30.303 -24.269,-10.157 -32.061,6.1725"
         inkscape:connector-curvature="0"
         style="fill:#ff3038;stroke:#670000;stroke-width:8;stroke-linecap:round;stroke-linejoin:round" />
      <path
         id="path3911"
         transform="translate(0,540.36)"
         d="m 347,82.562 c -28.022,0.03162 -20.415,21.855 10.562,23.969 0,0 3.0399,-0.92513 6.875,-2.4375 -2.3682,-6.7712 -5.2734,-13.827 -8.8438,-20.938 -3.15,-0.389 -6.04,-0.596 -8.59,-0.594 z m 12.219,27.719 c -24.235,0.0273 -17.666,18.922 9.125,20.75 0,0 1.4368,-0.41043 3.5,-1.1562 -1.3893,-5.7599 -3.0365,-12.189 -5.1875,-19.062 -2.7282,-0.33804 -5.2309,-0.53374 -7.4375,-0.53125 z m 10.188,22.844 c -20.848,0.0235 -15.172,16.271 7.875,17.844 0,0 0.031,9e-5 0.0313,0 -1.5017,-3.9071 -2.8544,-10.075 -4.6562,-17.719 -1.1382,-0.0818 -2.2389,-0.12614 -3.25,-0.125 z m 18.438,26.125 -10.75,32.875 c 4.868,1.383 9.9269,3.1509 14.969,5 l 5.75,-33.875 c -3.6614,-1.4537 -7.0746,-2.7884 -9.9688,-4 z m 20.875,8.5312 -5.22,33.61 c 4.0413,1.484 7.9626,2.8688 11.625,3.9688 l 11.85,-27.47 c -5.3203,-3.8913 -11.777,-7.2175 -18.25,-10.094 z"
         inkscape:connector-curvature="0"
         style="fill:#b00000" />
      <path
         id="path3925"
         d="m 279,16.719 c -24.78,0.854 -27.28,35.656 -27.28,35.656 0,0 -67.859,-36.768 -70.688,-11.312 -2.8284,25.456 -53.289,106.66 -8.5,151.31 43.559,43.423 156.55,4.6441 181.66,-2.25 25.102,-6.8941 80.24,34.347 84.812,9.875 4.3813,-27.164 -53.652,-38.229 -59.812,-45.5 -6.1601,-7.2708 -7.3834,-47.892 -31.518,-85.287 -15.28,-23.673 -54.13,-50.849 -63.42,-52.177 -1.86,-0.265 -3.6,-0.369 -5.25,-0.312 z"
         transform="translate(0,540.36)"
         inkscape:connector-curvature="0"
         style="fill:none;stroke:#670000;stroke-width:8;stroke-linecap:round;stroke-linejoin:round" />
      <path
         id="path3897"
         d="m 320.41,648.61 c 18.615,-11.221 38.33,-19.271 63.179,-12.504"
         inkscape:connector-curvature="0"
         style="fill:none;stroke:#670000;stroke-width:8;stroke-linecap:round" />
      <path
         id="path3895"
         d="m 313,633.36 c 15.193,-15.544 32.247,-28.296 58,-28"
         inkscape:connector-curvature="0"
         style="fill:none;stroke:#670000;stroke-width:8;stroke-linecap:round" />
      <path
         id="path3931"
         transform="translate(0,540.36)"
         d="m 189.5,66.523 c -3.907,-6.9005 -0.46862,-21.29 6.364,-22.627 6.8326,-1.3374 32.121,6.9475 29.698,15.556 -2.4225,8.6088 -32.155,13.972 -36.062,7.0711 z"
         inkscape:connector-curvature="0"
         style="fill:#b00000" />
      <path
         id="path3933"
         transform="translate(0,540.36)"
         d="m 268.7,53.795 c -3.1372,-6.9164 3.3922,-24.655 9.8995,-25.456 6.5073,-0.80108 27.526,11.63 24.749,19.799 -2.7775,8.1692 -31.511,12.573 -34.648,5.6569 z"
         inkscape:connector-curvature="0"
         style="fill:#b00000" />
      <path
         id="path3939"
         d="m 260.22,662.94 c -9.6454,7.4874 -15.992,5.0779 -21.92,1.4142"
         inkscape:connector-curvature="0"
         style="fill:#ff3038;stroke:#670000;stroke-width:8;stroke-linecap:round;stroke-linejoin:round" />
    </g>
  </g>
  <metadata
     id="metadata3566">
    <rdf:RDF>
      <cc:Work>
        <dc:format>image/svg+xml</dc:format>
        <dc:type
           rdf:resource="http://purl.org/dc/dcmitype/StillImage" />
        <cc:license
           rdf:resource="http://creativecommons.org/publicdomain/zero/1.0/" />
        <dc:publisher>
          <cc:Agent
             rdf:about="http://openclipart.org/">
            <dc:title>Openclipart</dc:title>
          </cc:Agent>
        </dc:publisher>
        <dc:title></dc:title>
        <dc:date>2013-04-27T11:46:03</dc:date>
        <dc:description>Got a sad cat image sent, had to make a happy cat. I'm cold, so warmth makes me feel happy, hence the theme. Enjoy!</dc:description>
        <dc:source>https://openclipart.org/detail/177488/happy-cat-on-warm-oven-by-qubodup-177488</dc:source>
        <dc:creator>
          <cc:Agent>
            <dc:title>qubodup</dc:title>
          </cc:Agent>
        </dc:creator>
        <dc:subject>
          <rdf:Bag>
            <rdf:li>cat happy cute animal domestic babushka simple flat style red brown fire heating heat hot warmth warm feeling good cutie animals</rdf:li>
          </rdf:Bag>
        </dc:subject>
      </cc:Work>
      <cc:License
         rdf:about="http://creativecommons.org/publicdomain/zero/1.0/">
        <cc:permits
           rdf:resource="http://creativecommons.org/ns#Reproduction" />
        <cc:permits
           rdf:resource="http://creativecommons.org/ns#Distribution" />
        <cc:permits
           rdf:resource="http://creativecommons.org/ns#DerivativeWorks" />
      </cc:License>
    </rdf:RDF>
  </metadata>
  <text
     xml:space="preserve"
     style="font-style:normal;font-weight:normal;font-size:12.5px;line-height:125%;font-family:Sans;letter-spacing:0px;word-spacing:0px;fill:#000000;fill-opacity:1;stroke:none;stroke-width:1px;stroke-linecap:butt;stroke-linejoin:miter;stroke-opacity:1"
     x="190.74576"
     y="33.627163"
     id="text3572"
     sodipodi:linespacing="125%"><tspan
       sodipodi:role="line"
       x="190.74576"
       y="33.627163"
       id="tspan3576"
       style="font-style:italic;font-variant:normal;font-weight:normal;font-stretch:normal;font-size:30px;font-family:'Lucida Calligraphy';-inkscape-font-specification:'Lucida Calligraphy Italic'">That's it folks!</tspan></text>
  <text
     sodipodi:linespacing="125%"
     id="text3398"
     y="533.6272"
     x="82.745758"
     style="font-style:normal;font-weight:normal;font-size:12.5px;line-height:125%;font-family:Sans;letter-spacing:0px;word-spacing:0px;fill:#000000;fill-opacity:1;stroke:none;stroke-width:1px;stroke-linecap:butt;stroke-linejoin:miter;stroke-opacity:1"
     xml:space="preserve"><tspan
       style="font-style:italic;font-variant:normal;font-weight:normal;font-stretch:normal;font-size:30px;font-family:'Lucida Calligraphy';-inkscape-font-specification:'Lucida Calligraphy Italic'"
       id="tspan3400"
       y="533.6272"
       x="82.745758"
       sodipodi:role="line">Thank you for your attention!</tspan></text>
</svg>
